<?xml version="1.0" encoding="UTF-8"?><svg xmlns:xlink="http://www.w3.org/1999/xlink" xmlns="http://www.w3.org/2000/svg" version="1.1" width="1300" height="700" style="background-color: #b4b8ab"><script type="text/ecmascript"> 
var chrtNr = 1;
showDivs(chrtNr);

function move(n) {
  showDivs(chrtNr += n);
}

function currentDiv(n) {
  showDivs(chrtNr = n);
}

function showDivs(n) {
  var i;
  var x = document.getElementsByClassName("charts");

  if (n &gt; x.length) {chrtNr = 1}
  if (n &lt; 1) {chrtNr = x.length}
  for (i = 0; i &lt; x.length; i++) {
    x[i].style.display = "none";
  }
  x[chrtNr-1].style.display = "block";
}
	  		 </script><text x="150" y="55" style="font-family:helvetica; font-weight: bold; font-size:30"><animate attributeName="x" attributeType="XML" begin="0s" dur="2s" end="2s" from="0" to="150"/>SALON SAMOCHODOWY</text><text x="0" y="0" style="font-family:helvetica;font-size:15"><animateMotion path="M 0 0 L 150 70" dur="2s" begin="0s" end="2s" repeatCount="1" fill="freeze"/>Wykonanie: Jan Klamka &amp; Maciej Pracucik</text><g class="charts"><rect x="150" y="100" width="750" height="400" fill="#f9f9f9"/><line x1="150" y1="500" x2="900" y2="500" stroke-width="3" stroke="black"/><line x1="150" y1="500" x2="150" y2="100" stroke-width="3" stroke="black"/><rect x="200" width="60" fill="black" height="200" y="300"/><rect x="350" width="60" fill="black" height="350" y="150"/><rect x="500" width="60" fill="black" height="300" y="200"/><rect x="650" width="60" fill="black" height="0" y="500"/><rect x="800" width="60" fill="black" height="150" y="350"/><g class="description" style="font-family: helvetica"><text x="200" y="520">Sedan</text><text x="225" y="490" fill="white">4</text><text x="350" y="520">Kombi</text><text x="375" y="490" fill="white">7</text><text x="500" y="520">Hatchback</text><text x="525" y="490" fill="white">6</text><text x="650" y="520">Compact</text><text x="680" y="490" fill="black">0</text><text x="800" y="520">Coupe</text><text x="825" y="490" fill="white">3</text><text x="160" y="125">Łączna liczba samochodów: 20</text><text x="150" y="550" style="font-family: helvetica; font-size: 18;"> Opis: Podział liczby oferowanych samochodów wg rodzaju nadwozia </text></g></g><g class="charts"><rect x="150" y="100" width="750" height="400" fill="#f9f9f9"/><line x1="150" y1="500" x2="900" y2="500" stroke-width="3" stroke="black"/><line x1="150" y1="500" x2="150" y2="100" stroke-width="3" stroke="black"/><rect x="280" width="90" fill="black" height="120" y="380"/><rect x="430" width="90" fill="black" height="150" y="350"/><rect x="580" width="90" fill="black" height="330" y="170"/><g class="description" style="font-family: helvetica"><text x="305" y="520">LPG</text><text x="315" y="490" fill="white">4</text><text x="445" y="520">Benzyna</text><text x="470" y="490" fill="white">5</text><text x="600" y="520">Diesel</text><text x="615" y="490" fill="white">11</text><text x="160" y="125">Łączna liczba samochodów: 20</text><text x="150" y="550" style="font-family: helvetica; font-size: 18;"> Opis: Podział liczby oferowanych samochodów wg rodzaju paliwa </text></g></g><g class="charts"><rect x="150" y="100" width="750" height="400" fill="#f9f9f9"/><rect x="150" y="500" width="750" height="70" fill="#b4b8ab"/><line x1="150" y1="500" x2="900" y2="500" stroke-width="3" stroke="black"/><line x1="150" y1="500" x2="150" y2="100" stroke-width="3" stroke="black"/><rect x="280" width="90" fill="black" height="180" y="320"/><rect x="430" width="90" fill="black" height="300" y="200"/><rect x="580" width="90" fill="black" height="375" y="125"/><g class="description" style="font-family: helvetica"><text x="295" y="520">Audi A8</text><text x="405" y="520">Cheverolet Camaro</text><text x="575" y="520">Ford Mustang</text><text x="290" y="490" fill="white">120000 zł</text><text x="440" y="490" fill="white">200000 zł</text><text x="590" y="490" fill="white">250000 zł</text><text x="150" y="550" style="font-family: helvetica; font-size: 18;"> Opis: 3 najdroższe spośród oferowanych samochodów </text></g></g><g class="buttons" style="font-family: helvetica; cursor:pointer;"><g style="font-weight: bold; font-size:20"><text class="btn" x="400" y="585" onclick="move(-1)">&lt; Poprzedni</text><text class="btn" x="600" y="585" onclick="move(1)">Następny &gt; </text></g><g style=" font-size: 22; width: 20px; height: 10px; background-color: grey"><text x="0" y="0" style="font-weight: bold; font-size: 19; cursor: default"><animateMotion path="M 0 0 L 945 250" dur="3s" begin="0s" end="3s" repeatCount="1" fill="freeze"/> WYBIERZ RODZAJ WYKRESU </text><text onclick="currentDiv(3)" x="0" y="0" style="font-weight: light"><animateMotion path="M 0 0 L 945 280" dur="3s" begin="0s" end="3s" repeatCount="1" fill="freeze"/> ° TOP3 najdroższe samochody</text><text class="btn2" onclick="currentDiv(1)" x="0" y="0"><animateMotion path="M 0 0 L 945 310" dur="3s" begin="0s" end="3s" repeatCount="1" fill="freeze"/> ° Podział wg rodzaju nadwozia</text><text class="btn2" onclick="currentDiv(2)" x="0" y="0"><animateMotion path="M 0 0 L 945 340" dur="3s" begin="0s" end="3s" repeatCount="1" fill="freeze"/> ° Podział wg rodzaju paliwa</text></g></g></svg>